<svg width="280" height="47" viewBox="0 0 280 47" fill="none" xmlns="http://www.w3.org/2000/svg">
<g clip-path="url(#clip0_56720_17705)">
<path d="M0.290039 45.9998V0.181641H29.0159V6.13263H7.20304V20.0928H27.517V26.0215H7.20304V40.0488H29.2844V45.9998H0.290039ZM53.754 11.6362V17.0055H34.9837V11.6362H53.754ZM40.0174 3.40323H46.7067V35.91C46.7067 37.2075 46.9006 38.1845 47.2884 38.8407C47.6762 39.482 48.1758 39.922 48.7873 40.1607C49.4138 40.3844 50.0924 40.4962 50.8232 40.4962C51.3601 40.4962 51.8299 40.459 52.2326 40.3844C52.6353 40.3098 52.9486 40.2502 53.1723 40.2054L54.3804 45.7313C53.9926 45.8805 53.4407 46.0296 52.7248 46.1788C52.0089 46.3428 51.114 46.4323 50.0402 46.4472C48.2802 46.4771 46.6396 46.1639 45.1183 45.5076C43.597 44.8514 42.3665 43.8372 41.4269 42.465C40.4873 41.0928 40.0174 39.3702 40.0174 37.297V3.40323ZM75.5948 46.6933C72.2091 46.6933 69.2933 45.97 66.8473 44.5232C64.4161 43.0616 62.5369 41.0108 61.2095 38.3709C59.897 35.7161 59.2407 32.6063 59.2407 29.0417C59.2407 25.5218 59.897 22.4195 61.2095 19.7349C62.5369 17.0502 64.3863 14.9547 66.7578 13.4483C69.1441 11.9419 71.9332 11.1887 75.125 11.1887C77.0639 11.1887 78.9431 11.5094 80.7627 12.1507C82.5823 12.7921 84.2155 13.7988 85.6622 15.171C87.109 16.5431 88.25 18.3254 89.0852 20.5179C89.9204 22.6955 90.338 25.3428 90.338 28.46V30.8315H63.0216V25.8201H83.783C83.783 24.0602 83.425 22.5016 82.7091 21.1443C81.9932 19.7722 80.9865 18.6909 79.6889 17.9004C78.4062 17.1099 76.8998 16.7146 75.1697 16.7146C73.2904 16.7146 71.6498 17.177 70.2478 18.1017C68.8608 19.0115 67.7869 20.2047 67.0262 21.6813C66.2805 23.1429 65.9076 24.7313 65.9076 26.4465V30.3617C65.9076 32.6585 66.3103 34.6124 67.1157 36.2232C67.936 37.834 69.077 39.0644 70.5387 39.9146C72.0003 40.7498 73.7081 41.1674 75.6619 41.1674C76.9296 41.1674 78.0855 40.9884 79.1296 40.6305C80.1736 40.2576 81.076 39.7058 81.8366 38.9749C82.5973 38.2441 83.1789 37.3418 83.5816 36.2679L89.913 37.4089C89.4059 39.2732 88.496 40.9064 87.1835 42.3084C85.886 43.6955 84.2528 44.7768 82.284 45.5524C80.3302 46.313 78.1005 46.6933 75.5948 46.6933ZM97.76 45.9998V11.6362H104.226V17.095H104.583C105.21 15.2455 106.314 13.7913 107.895 12.7324C109.49 11.6585 111.295 11.1216 113.309 11.1216C113.726 11.1216 114.218 11.1365 114.785 11.1663C115.367 11.1962 115.822 11.2335 116.15 11.2782V17.6766C115.881 17.6021 115.404 17.52 114.718 17.4306C114.032 17.3261 113.346 17.2739 112.66 17.2739C111.079 17.2739 109.669 17.6095 108.432 18.2807C107.208 18.9369 106.239 19.8542 105.523 21.0325C104.807 22.1958 104.449 23.5232 104.449 25.0147V45.9998H97.76ZM128.628 25.5964V45.9998H121.939V11.6362H128.36V17.2292H128.785C129.575 15.4096 130.813 13.948 132.498 12.8443C134.199 11.7406 136.339 11.1887 138.919 11.1887C141.261 11.1887 143.312 11.6809 145.072 12.6653C146.831 13.6347 148.196 15.0815 149.166 17.0055C150.135 18.9295 150.62 21.3084 150.62 24.1422V45.9998H143.931V24.9476C143.931 22.4568 143.282 20.5105 141.984 19.1085C140.687 17.6916 138.904 16.9831 136.637 16.9831C135.086 16.9831 133.706 17.3187 132.498 17.9899C131.305 18.661 130.358 19.6454 129.657 20.943C128.971 22.2257 128.628 23.7768 128.628 25.5964ZM169.591 46.7605C167.414 46.7605 165.445 46.3578 163.685 45.5524C161.925 44.732 160.531 43.5463 159.502 41.9952C158.487 40.444 157.98 38.5424 157.98 36.2903C157.98 34.3514 158.353 32.7555 159.099 31.5026C159.845 30.2498 160.851 29.258 162.119 28.5271C163.387 27.7963 164.804 27.2445 166.37 26.8716C167.936 26.4987 169.532 26.2154 171.157 26.0215C173.216 25.7828 174.886 25.5889 176.169 25.4398C177.451 25.2757 178.384 25.0147 178.965 24.6568C179.547 24.2988 179.838 23.7171 179.838 22.9117V22.7551C179.838 20.8013 179.286 19.2874 178.182 18.2136C177.094 17.1397 175.468 16.6028 173.305 16.6028C171.053 16.6028 169.278 17.1024 167.981 18.1017C166.698 19.0861 165.811 20.1823 165.318 21.3904L159.032 19.9586C159.777 17.8705 160.866 16.1852 162.298 14.9025C163.745 13.6049 165.408 12.6653 167.287 12.0836C169.166 11.487 171.143 11.1887 173.216 11.1887C174.588 11.1887 176.042 11.3528 177.578 11.6809C179.129 11.9941 180.576 12.5758 181.918 13.4259C183.276 14.2761 184.387 15.4916 185.252 17.0726C186.117 18.6386 186.549 20.6745 186.549 23.1802V45.9998H180.017V41.3016H179.748C179.316 42.1667 178.667 43.0168 177.802 43.8521C176.937 44.6873 175.826 45.3808 174.469 45.9327C173.111 46.4845 171.486 46.7605 169.591 46.7605ZM171.046 41.3911C172.895 41.3911 174.476 41.0257 175.788 40.2949C177.116 39.5641 178.123 38.6095 178.809 37.4313C179.51 36.2381 179.86 34.9629 179.86 33.6056V29.1759C179.622 29.4146 179.159 29.6383 178.473 29.8471C177.802 30.041 177.034 30.2125 176.169 30.3617C175.304 30.4959 174.461 30.6227 173.641 30.742C172.82 30.8464 172.134 30.9359 171.583 31.0105C170.285 31.1745 169.099 31.4504 168.025 31.8382C166.966 32.226 166.116 32.7853 165.475 33.5161C164.848 34.232 164.535 35.1866 164.535 36.3798C164.535 38.0353 165.147 39.2882 166.37 40.1383C167.593 40.9735 169.151 41.3911 171.046 41.3911ZM202.148 0.181641V45.9998H195.459V0.181641H202.148ZM232.345 45.9998H225.007L241.495 0.181641H249.482L265.97 45.9998H258.632L245.679 8.50408H245.321L232.345 45.9998ZM233.575 28.0573H257.379V33.8741H233.575V28.0573ZM279.5 0.181641V45.9998H272.587V0.181641H279.5Z" fill="black"/>
</g>
<defs>
<clipPath id="clip0_56720_17705">
<rect width="280" height="47" fill="white"/>
</clipPath>
</defs>
</svg>
